<mxfile host="app.diagrams.net" modified="2023-09-24T22:09:30.022Z" agent="Mozilla/5.0 (Windows NT 10.0; Win64; x64; rv:109.0) Gecko/20100101 Firefox/117.0" etag="-LqcRNbUlXgNE0YVTa_B" version="21.7.1" type="github">
  <diagram name="Sivu-1" id="u8w1255cLJUokRJfRU84">
    <mxGraphModel dx="947" dy="510" grid="1" gridSize="10" guides="1" tooltips="1" connect="1" arrows="1" fold="1" page="1" pageScale="1" pageWidth="1169" pageHeight="827" math="1" shadow="0">
      <root>
        <mxCell id="0" />
        <mxCell id="1" parent="0" />
        <mxCell id="BRe9lMLLcG9ZO338y5ri-4" value="" style="rounded=0;whiteSpace=wrap;html=1;fillColor=#FFEBEB;strokeColor=none;" parent="1" vertex="1">
          <mxGeometry x="20" y="170" width="630" height="130" as="geometry" />
        </mxCell>
        <mxCell id="BRe9lMLLcG9ZO338y5ri-3" value="" style="rounded=0;whiteSpace=wrap;html=1;fillColor=#EBF4FF;strokeColor=none;" parent="1" vertex="1">
          <mxGeometry x="20" y="40" width="630" height="130" as="geometry" />
        </mxCell>
        <mxCell id="ajAWkNfieeJ6ma5MIzeF-1" value="$$+$$" style="ellipse;whiteSpace=wrap;html=1;aspect=fixed;" parent="1" vertex="1">
          <mxGeometry x="430" y="90" width="20" height="20" as="geometry" />
        </mxCell>
        <mxCell id="ajAWkNfieeJ6ma5MIzeF-14" style="edgeStyle=orthogonalEdgeStyle;rounded=0;orthogonalLoop=1;jettySize=auto;html=1;entryX=0.5;entryY=1;entryDx=0;entryDy=0;" parent="1" target="ajAWkNfieeJ6ma5MIzeF-12" edge="1">
          <mxGeometry relative="1" as="geometry">
            <mxPoint x="320" y="230" as="sourcePoint" />
            <mxPoint x="440" y="200" as="targetPoint" />
          </mxGeometry>
        </mxCell>
        <mxCell id="ajAWkNfieeJ6ma5MIzeF-5" value="&lt;font style=&quot;font-size: 18px;&quot;&gt;$$\text{Controller&amp;nbsp; } H(z)$$&lt;/font&gt;" style="rounded=0;whiteSpace=wrap;html=1;" parent="1" vertex="1">
          <mxGeometry x="200" y="210" width="160" height="40" as="geometry" />
        </mxCell>
        <mxCell id="ajAWkNfieeJ6ma5MIzeF-6" value="" style="endArrow=classic;html=1;rounded=0;" parent="1" edge="1">
          <mxGeometry width="50" height="50" relative="1" as="geometry">
            <mxPoint x="450" y="100" as="sourcePoint" />
            <mxPoint x="640" y="100" as="targetPoint" />
          </mxGeometry>
        </mxCell>
        <mxCell id="ajAWkNfieeJ6ma5MIzeF-11" value="" style="endArrow=classic;html=1;rounded=0;entryX=0;entryY=0.5;entryDx=0;entryDy=0;strokeColor=#000000;fillColor=#dae8fc;" parent="1" target="MkHvFDJ00xlvMX1xVgFD-3" edge="1">
          <mxGeometry width="50" height="50" relative="1" as="geometry">
            <mxPoint x="40" y="100" as="sourcePoint" />
            <mxPoint x="220" y="100" as="targetPoint" />
          </mxGeometry>
        </mxCell>
        <mxCell id="ajAWkNfieeJ6ma5MIzeF-16" style="edgeStyle=orthogonalEdgeStyle;rounded=0;orthogonalLoop=1;jettySize=auto;html=1;entryX=0.5;entryY=1;entryDx=0;entryDy=0;" parent="1" source="ajAWkNfieeJ6ma5MIzeF-12" target="ajAWkNfieeJ6ma5MIzeF-1" edge="1">
          <mxGeometry relative="1" as="geometry" />
        </mxCell>
        <mxCell id="ajAWkNfieeJ6ma5MIzeF-12" value="&lt;font style=&quot;font-size: 18px;&quot;&gt;$$S(z)$$&lt;/font&gt;" style="rounded=0;whiteSpace=wrap;html=1;" parent="1" vertex="1">
          <mxGeometry x="400" y="150" width="80" height="40" as="geometry" />
        </mxCell>
        <mxCell id="ajAWkNfieeJ6ma5MIzeF-17" value="" style="endArrow=classic;html=1;rounded=0;entryX=0.5;entryY=1;entryDx=0;entryDy=0;" parent="1" target="ajAWkNfieeJ6ma5MIzeF-5" edge="1">
          <mxGeometry width="50" height="50" relative="1" as="geometry">
            <mxPoint x="520" y="100" as="sourcePoint" />
            <mxPoint x="220" y="230" as="targetPoint" />
            <Array as="points">
              <mxPoint x="520" y="280" />
              <mxPoint x="280" y="280" />
            </Array>
          </mxGeometry>
        </mxCell>
        <mxCell id="ajAWkNfieeJ6ma5MIzeF-20" value="&lt;font size=&quot;1&quot; color=&quot;#0000cc&quot;&gt;&lt;i&gt;&lt;font style=&quot;font-size: 14px;&quot;&gt;$$d(n)$$&lt;/font&gt;&lt;/i&gt;&lt;/font&gt;" style="text;html=1;strokeColor=none;fillColor=none;align=center;verticalAlign=middle;whiteSpace=wrap;rounded=0;" parent="1" vertex="1">
          <mxGeometry x="353.5" y="70" width="60" height="30" as="geometry" />
        </mxCell>
        <mxCell id="ajAWkNfieeJ6ma5MIzeF-21" value="&lt;font size=&quot;1&quot; color=&quot;#cc0000&quot;&gt;&lt;i&gt;&lt;font style=&quot;font-size: 14px;&quot;&gt;$$y(n)$$&lt;/font&gt;&lt;/i&gt;&lt;/font&gt;" style="text;html=1;strokeColor=none;fillColor=none;align=center;verticalAlign=middle;whiteSpace=wrap;rounded=0;" parent="1" vertex="1">
          <mxGeometry x="390" y="110" width="60" height="30" as="geometry" />
        </mxCell>
        <mxCell id="ajAWkNfieeJ6ma5MIzeF-22" value="&lt;div style=&quot;font-size: 15px;&quot;&gt;&lt;font size=&quot;1&quot; color=&quot;#009900&quot;&gt;&lt;i&gt;&lt;font style=&quot;font-size: 14px;&quot;&gt;$$e(n)$$&lt;/font&gt;&lt;/i&gt;&lt;/font&gt;&lt;/div&gt;" style="text;html=1;strokeColor=none;fillColor=none;align=center;verticalAlign=middle;whiteSpace=wrap;rounded=0;" parent="1" vertex="1">
          <mxGeometry x="490" y="70" width="60" height="30" as="geometry" />
        </mxCell>
        <mxCell id="ajAWkNfieeJ6ma5MIzeF-23" value="&lt;font size=&quot;1&quot; color=&quot;#7f00ff&quot;&gt;&lt;i&gt;&lt;font style=&quot;font-size: 14px;&quot;&gt;$$u(n)$$&lt;/font&gt;&lt;/i&gt;&lt;/font&gt;" style="text;html=1;strokeColor=none;fillColor=none;align=center;verticalAlign=middle;whiteSpace=wrap;rounded=0;" parent="1" vertex="1">
          <mxGeometry x="360" y="200" width="60" height="30" as="geometry" />
        </mxCell>
        <mxCell id="BRe9lMLLcG9ZO338y5ri-5" value="&lt;font style=&quot;font-size: 16px;&quot;&gt;Acoustical&lt;/font&gt;" style="text;html=1;strokeColor=none;fillColor=none;align=right;verticalAlign=middle;whiteSpace=wrap;rounded=0;fontStyle=2" parent="1" vertex="1">
          <mxGeometry x="560" y="150" width="80" height="20" as="geometry" />
        </mxCell>
        <mxCell id="BRe9lMLLcG9ZO338y5ri-6" value="&lt;font style=&quot;font-size: 16px;&quot;&gt;Electrical&lt;/font&gt;" style="text;html=1;strokeColor=none;fillColor=none;align=right;verticalAlign=middle;whiteSpace=wrap;rounded=0;fontStyle=2" parent="1" vertex="1">
          <mxGeometry x="560" y="170" width="80" height="20" as="geometry" />
        </mxCell>
        <mxCell id="MkHvFDJ00xlvMX1xVgFD-1" value="" style="endArrow=classic;html=1;rounded=0;entryX=0;entryY=0.5;entryDx=0;entryDy=0;" parent="1" target="ajAWkNfieeJ6ma5MIzeF-5" edge="1">
          <mxGeometry width="50" height="50" relative="1" as="geometry">
            <mxPoint x="140" y="100" as="sourcePoint" />
            <mxPoint x="210" y="380" as="targetPoint" />
            <Array as="points">
              <mxPoint x="140" y="230" />
            </Array>
          </mxGeometry>
        </mxCell>
        <mxCell id="MkHvFDJ00xlvMX1xVgFD-2" value="&lt;font size=&quot;1&quot; color=&quot;#cc6600&quot;&gt;&lt;i&gt;&lt;font style=&quot;font-size: 14px;&quot;&gt;$$x(n)$$&lt;/font&gt;&lt;/i&gt;&lt;/font&gt;" style="text;html=1;strokeColor=none;fillColor=none;align=center;verticalAlign=middle;whiteSpace=wrap;rounded=0;" parent="1" vertex="1">
          <mxGeometry x="40" y="70" width="60" height="30" as="geometry" />
        </mxCell>
        <mxCell id="MkHvFDJ00xlvMX1xVgFD-4" style="edgeStyle=orthogonalEdgeStyle;rounded=0;orthogonalLoop=1;jettySize=auto;html=1;" parent="1" source="MkHvFDJ00xlvMX1xVgFD-3" target="ajAWkNfieeJ6ma5MIzeF-1" edge="1">
          <mxGeometry relative="1" as="geometry" />
        </mxCell>
        <mxCell id="MkHvFDJ00xlvMX1xVgFD-3" value="&lt;font style=&quot;font-size: 18px;&quot;&gt;$$P(z)$$&lt;/font&gt;" style="rounded=0;whiteSpace=wrap;html=1;" parent="1" vertex="1">
          <mxGeometry x="220" y="80" width="120" height="40" as="geometry" />
        </mxCell>
      </root>
    </mxGraphModel>
  </diagram>
</mxfile>
